<?xml version="1.0" encoding="UTF-8" ?>
<!DOCTYPE svg PUBLIC "-//W3C//DTD SVG 1.1//EN" "http://www.w3.org/Graphics/SVG/1.1/DTD/svg11.dtd">
<svg width="662pt" height="662pt" viewBox="0 0 662 662" version="1.1" xmlns="http://www.w3.org/2000/svg">
<g id="#e7b21bff">
<path fill="#e7b21b" opacity="1.00" d=" M 223.11 39.05 C 224.31 37.53 225.81 35.70 228.01 36.42 C 231.73 38.79 235.12 41.66 238.38 44.62 C 240.28 45.98 239.84 48.81 238.31 50.28 C 232.17 57.81 226.14 65.42 219.94 72.89 C 217.32 76.01 215.08 79.51 211.95 82.17 C 209.60 83.33 207.61 81.52 205.98 80.06 C 203.08 77.50 199.69 75.41 197.44 72.19 C 199.06 67.64 202.72 64.31 205.64 60.60 C 211.42 53.38 217.30 46.25 223.11 39.05 Z" />
<path fill="#e7b21b" opacity="1.00" d=" M 235.27 62.98 C 237.29 61.04 239.99 62.92 241.67 64.36 C 251.32 72.20 260.98 80.02 270.58 87.90 C 271.81 91.57 268.64 94.07 266.61 96.61 C 255.36 110.50 244.09 124.36 232.82 138.24 C 220.86 128.79 209.15 119.02 197.27 109.46 C 210.10 94.10 222.42 78.32 235.27 62.98 Z" />
<path fill="#e7b21b" opacity="1.00" d=" M 283.60 84.43 C 288.41 83.24 291.29 87.89 294.81 90.21 C 296.80 91.64 299.70 94.10 297.89 96.78 C 290.55 106.11 282.92 115.22 275.49 124.47 C 273.57 126.74 271.96 129.51 269.01 130.55 C 264.91 128.31 261.48 125.08 257.91 122.11 C 256.05 120.88 256.13 117.98 257.62 116.49 C 266.23 105.77 275.01 95.18 283.60 84.43 Z" />
<path fill="#e7b21b" opacity="1.00" d=" M 137.58 105.59 C 138.77 103.95 141.11 102.72 142.96 104.08 C 146.86 106.74 150.25 110.06 154.03 112.87 C 156.47 114.20 156.41 117.77 154.56 119.58 C 143.73 133.08 132.73 146.46 121.85 159.91 C 119.67 162.43 117.82 166.29 113.85 165.58 C 109.85 162.08 105.60 158.89 101.56 155.46 C 99.50 153.77 100.57 150.87 102.11 149.22 C 113.96 134.70 125.81 120.17 137.58 105.59 Z" />
<path fill="#e7b21b" opacity="1.00" d=" M 175.71 107.39 C 177.31 107.44 179.16 107.09 180.36 108.44 C 198.61 123.22 216.79 138.08 235.06 152.83 C 237.14 154.12 239.01 156.90 237.08 159.14 C 221.92 177.95 206.64 196.68 191.40 215.43 C 190.30 217.02 187.90 216.46 186.61 215.39 C 177.22 208.15 168.33 200.26 158.87 193.13 L 158.17 193.30 C 155.32 197.41 152.55 201.59 149.96 205.86 C 149.51 205.77 148.61 205.58 148.16 205.48 C 160.21 213.69 172.57 221.43 184.65 229.60 C 180.86 233.36 179.00 238.61 175.17 242.27 C 175.46 238.11 178.81 235.12 180.78 231.68 C 180.09 231.30 178.72 230.54 178.04 230.17 C 175.75 233.23 174.37 237.20 171.04 239.33 C 171.67 235.18 175.29 232.43 176.89 228.68 C 175.69 228.68 173.74 227.41 173.08 229.11 C 171.25 231.80 169.64 234.64 167.47 237.08 C 167.16 232.94 171.06 230.06 172.81 226.61 C 172.10 226.20 170.70 225.37 169.99 224.96 C 167.59 227.89 166.66 232.46 163.03 234.12 C 164.08 230.23 166.98 227.24 168.92 223.80 C 168.23 223.46 166.86 222.79 166.17 222.45 C 163.99 225.67 161.98 229.03 159.40 231.95 C 159.19 227.55 163.61 224.91 164.93 220.97 C 164.20 220.73 162.75 220.25 162.02 220.01 C 159.71 223.09 158.45 227.29 154.91 229.21 C 156.05 225.34 159.00 222.39 160.78 218.83 C 160.29 218.41 159.32 217.57 158.83 217.15 C 155.80 219.90 154.45 224.02 151.58 226.95 C 151.17 222.55 155.55 219.71 157.01 215.84 C 156.29 215.59 154.83 215.08 154.11 214.82 C 151.76 217.86 150.51 222.02 147.09 224.06 C 147.87 220.15 150.97 217.37 152.78 213.96 C 152.27 213.50 151.25 212.58 150.74 212.11 C 147.49 214.50 147.09 220.00 142.86 221.04 C 144.68 217.46 147.24 214.31 149.05 210.72 C 148.32 210.47 146.86 209.98 146.13 209.73 C 144.06 212.80 142.52 216.44 139.40 218.62 C 140.27 214.57 143.61 211.76 145.06 207.95 C 144.34 207.74 142.89 207.32 142.16 207.11 C 139.82 209.99 138.90 214.63 135.11 215.95 C 136.51 212.10 139.74 209.19 140.90 205.27 C 140.43 205.23 139.49 205.16 139.02 205.12 C 136.69 208.02 135.20 211.58 132.35 214.06 C 132.50 209.97 136.11 207.21 137.91 203.78 C 137.07 203.21 136.23 202.64 135.39 202.08 C 132.68 204.96 131.61 209.46 127.93 211.30 C 129.18 207.44 132.12 204.49 133.88 200.88 C 133.18 200.55 131.77 199.88 131.07 199.55 C 129.11 202.92 127.08 206.28 124.48 209.22 C 124.28 205.04 128.25 202.15 129.93 198.58 C 129.06 198.03 128.19 197.48 127.32 196.95 C 124.71 199.80 123.82 204.64 119.97 206.03 C 121.16 202.80 123.34 200.12 125.23 197.30 C 126.56 196.01 124.48 194.93 123.92 193.97 C 121.16 197.14 119.42 201.07 116.43 204.04 C 115.99 199.46 121.65 196.96 121.54 192.54 C 120.91 192.48 119.64 192.35 119.01 192.29 C 116.60 195.10 115.67 199.74 111.87 201.00 C 113.39 197.33 116.15 194.36 117.87 190.79 C 117.11 190.19 116.33 189.59 115.55 189.02 C 113.51 191.77 111.94 194.84 109.90 197.59 C 109.44 197.65 108.53 197.77 108.07 197.82 C 109.77 194.61 111.94 191.69 113.88 188.63 C 113.40 188.01 112.43 186.78 111.95 186.17 C 109.40 189.42 107.57 193.22 104.57 196.12 C 104.49 193.01 107.07 190.90 108.46 188.39 C 109.43 187.38 110.92 183.97 108.14 184.68 C 105.56 187.40 104.70 192.04 100.82 193.26 C 103.23 188.61 106.42 184.41 108.93 179.81 C 121.16 188.33 134.03 195.91 146.14 204.57 C 149.01 199.63 152.42 195.03 155.36 190.13 C 147.22 183.38 138.89 176.85 130.75 170.09 C 129.04 168.82 127.44 166.19 129.40 164.39 C 144.80 145.37 160.29 126.41 175.71 107.39 Z" />
<path fill="#e7b21b" opacity="1.00" d=" M 231.23 180.27 C 232.51 178.05 235.69 177.71 237.41 179.64 C 240.98 182.75 244.92 185.42 248.37 188.66 C 250.39 190.33 249.39 193.23 247.79 194.81 C 235.14 210.03 223.08 225.73 210.17 240.72 C 206.47 240.60 204.02 237.66 201.31 235.56 C 198.99 233.56 196.39 231.83 194.39 229.50 C 192.82 227.58 194.54 225.28 195.79 223.75 C 207.67 209.31 219.32 194.68 231.23 180.27 Z" />
</g>
<g id="#fffeffff">
<path fill="#fffeff" opacity="1.00" d=" M 472.08 139.08 C 477.30 142.43 482.16 146.31 487.32 149.75 C 504.71 160.79 521.53 173.05 535.76 188.02 C 553.39 207.70 568.18 230.04 578.52 254.39 C 578.84 255.64 579.05 256.92 579.14 258.23 C 577.54 256.93 576.11 255.47 574.58 254.11 L 575.12 252.67 L 573.29 253.81 C 571.62 248.07 567.39 243.69 564.28 238.72 C 561.71 234.69 558.19 231.18 556.61 226.58 C 555.29 222.94 555.24 218.90 553.38 215.44 C 546.45 203.81 536.36 194.62 526.53 185.50 C 523.70 183.66 526.54 179.71 524.03 177.79 C 516.55 170.98 507.55 166.23 498.85 161.20 C 492.16 157.42 486.92 151.71 481.06 146.83 C 478.07 144.24 474.74 142.03 472.08 139.08 Z" />
</g>
<g id="#fffdfeff">
<path fill="#fffdfe" opacity="1.00" d=" M 440.84 139.97 C 446.37 141.07 451.12 144.38 456.01 147.03 C 464.33 151.93 473.03 156.28 480.46 162.55 C 482.62 164.69 486.04 164.68 488.11 166.92 C 493.01 174.31 500.88 179.01 506.53 185.79 C 506.98 186.29 507.43 186.80 507.89 187.31 C 508.03 186.81 508.29 185.80 508.42 185.29 C 510.11 187.71 511.21 190.62 513.52 192.56 C 516.66 195.38 519.65 198.50 521.29 202.45 C 546.70 234.41 563.60 273.14 569.26 313.59 C 572.41 325.10 573.27 337.09 573.22 348.99 C 574.16 389.62 562.85 430.01 543.31 465.47 L 542.46 464.24 C 542.46 465.01 542.47 466.55 542.48 467.32 C 550.12 454.94 556.61 441.83 561.79 428.24 C 562.85 425.05 566.87 422.49 565.36 418.85 L 566.83 419.80 C 566.64 418.31 566.47 416.82 566.30 415.34 L 567.56 415.64 C 566.84 410.74 569.17 406.23 569.77 401.46 C 572.14 391.88 573.23 382.06 574.71 372.32 C 576.17 366.17 576.44 359.84 577.46 353.62 C 577.75 349.80 580.05 345.79 578.09 342.10 C 576.78 339.59 577.04 336.74 577.03 334.01 C 575.76 307.74 569.63 281.79 559.51 257.53 C 556.57 250.35 552.91 243.48 550.65 236.03 L 551.06 234.71 C 550.01 234.33 548.98 233.94 547.97 233.52 C 547.66 231.86 547.05 230.30 546.44 228.75 C 545.46 227.82 544.70 226.69 544.26 225.43 C 543.98 225.11 543.42 224.48 543.14 224.16 C 543.48 223.40 543.83 222.65 544.18 221.89 C 539.92 215.73 535.85 209.38 531.94 202.98 C 538.25 210.41 543.22 218.88 548.28 227.19 C 547.90 225.53 547.15 222.22 546.77 220.57 C 554.71 230.43 561.47 241.19 567.51 252.31 C 576.31 268.68 583.79 285.81 589.22 303.59 C 590.65 311.28 591.08 319.14 590.98 326.96 C 591.18 336.33 589.36 345.92 592.19 355.08 C 593.05 364.06 595.47 372.98 594.60 382.07 C 594.81 385.34 589.91 385.56 590.17 388.86 C 589.52 401.72 588.68 414.74 584.86 427.11 C 583.40 433.56 576.93 437.49 575.46 443.97 C 572.97 454.94 568.88 465.52 566.90 476.60 C 571.00 471.39 573.29 465.04 575.93 459.03 C 584.47 439.57 589.52 418.82 593.31 397.98 C 592.77 403.69 592.65 409.49 591.21 415.08 C 587.05 437.65 579.17 459.62 567.39 479.35 C 554.82 500.45 537.62 518.14 522.20 537.09 C 507.52 554.14 490.63 569.41 471.57 581.43 C 457.97 589.99 443.08 596.24 427.96 601.53 C 396.88 612.28 363.89 617.47 331.02 616.91 C 318.67 616.06 306.24 615.85 294.06 613.47 C 251.21 607.21 210.12 589.67 175.81 563.24 C 167.10 557.05 159.62 549.37 151.64 542.31 C 146.34 536.65 141.08 530.92 136.15 524.93 C 135.34 524.11 134.51 523.31 133.65 522.55 C 133.30 519.76 129.93 518.85 128.37 516.81 C 128.63 516.19 129.15 514.96 129.42 514.35 L 128.25 516.60 C 127.26 514.97 126.36 513.37 125.23 511.86 C 126.71 515.06 128.78 518.01 131.50 520.29 C 131.05 522.68 133.91 523.38 135.15 524.89 C 136.10 526.14 137.05 527.37 138.02 528.61 C 137.79 528.77 137.31 529.08 137.08 529.23 C 141.03 529.67 140.74 535.27 144.21 536.80 L 144.73 537.29 C 151.01 545.57 157.92 553.35 165.07 560.88 C 167.18 563.18 169.76 565.13 171.29 567.92 C 161.54 558.87 152.84 548.70 144.54 538.31 C 144.16 538.45 143.38 538.72 143.00 538.86 L 142.44 539.38 C 144.06 541.43 145.97 543.34 146.94 545.83 C 144.02 543.59 142.33 540.18 139.57 537.77 C 140.09 537.39 140.62 537.01 141.15 536.65 C 140.32 536.48 138.65 536.12 137.82 535.94 C 137.84 534.91 139.04 533.65 138.20 532.74 C 137.54 531.85 136.71 533.01 136.10 533.34 C 133.90 529.72 131.08 526.52 128.74 522.98 C 128.34 523.23 127.52 523.74 127.12 523.99 L 127.70 522.81 C 124.07 519.86 122.00 515.51 119.15 511.87 C 116.31 507.45 113.12 503.22 110.90 498.44 C 111.88 499.18 112.87 499.94 113.84 500.70 C 113.31 498.45 112.12 495.60 109.26 496.33 C 107.00 491.81 104.34 487.51 102.20 482.94 C 101.75 481.67 100.87 480.71 99.85 479.89 C 98.80 478.24 97.75 476.59 97.05 474.76 C 95.58 471.72 94.06 468.71 92.76 465.60 C 93.00 465.26 93.48 464.57 93.72 464.23 C 93.31 463.96 92.49 463.44 92.08 463.18 C 92.33 462.77 92.83 461.97 93.08 461.57 L 90.55 461.99 C 90.97 461.01 91.80 459.04 92.21 458.05 C 93.61 458.99 93.85 460.98 94.66 462.40 C 97.85 469.86 101.13 477.30 104.98 484.45 C 105.13 484.57 105.44 484.81 105.59 484.93 C 100.60 475.38 96.42 465.42 92.58 455.37 C 90.09 449.04 88.07 442.54 85.74 436.16 C 84.73 432.06 83.68 427.97 82.10 424.04 C 82.24 426.03 82.74 427.96 83.44 429.84 C 86.11 438.87 88.86 447.88 92.41 456.62 C 91.46 456.63 90.53 456.47 89.59 456.40 C 90.00 457.04 90.84 458.33 91.25 458.97 C 91.15 459.50 90.94 460.57 90.83 461.10 C 80.42 439.50 74.39 416.00 71.10 392.32 C 70.41 382.39 66.94 372.89 66.87 362.89 C 66.82 356.72 65.17 350.66 65.33 344.51 C 67.60 334.04 66.31 323.30 66.60 312.69 C 66.65 310.04 67.39 307.47 67.79 304.86 C 68.28 302.95 68.63 301.01 69.17 299.11 C 69.49 296.64 70.19 294.25 70.76 291.83 C 71.41 289.74 72.06 287.66 72.71 285.57 L 73.61 285.45 L 73.56 284.21 C 74.03 284.38 74.97 284.71 75.44 284.88 C 76.07 283.32 76.66 281.74 77.22 280.16 C 77.45 278.79 77.70 277.43 78.07 276.10 C 78.44 275.10 78.81 274.11 79.18 273.11 C 80.01 271.01 80.99 268.98 81.82 266.89 C 82.96 264.13 84.26 261.42 85.73 258.82 C 87.16 256.57 88.42 254.23 89.74 251.91 C 90.25 251.05 90.77 250.19 91.28 249.33 C 92.37 247.68 93.56 246.10 94.70 244.49 L 95.13 244.39 C 95.48 244.10 96.16 243.52 96.50 243.23 L 96.51 242.51 L 97.20 242.41 C 98.57 240.34 100.28 238.52 102.34 237.13 C 102.42 237.70 102.59 238.85 102.68 239.43 C 101.70 241.16 100.80 242.94 99.97 244.75 C 101.92 244.35 104.30 244.35 105.20 242.18 C 105.73 241.38 106.23 240.57 106.71 239.75 C 109.94 235.42 114.88 233.13 119.99 231.86 C 121.01 231.63 122.04 231.40 123.07 231.18 C 127.06 229.69 131.51 230.05 135.39 231.70 L 135.42 232.29 C 135.79 232.50 136.53 232.93 136.90 233.14 C 140.76 238.67 139.56 245.69 139.18 251.99 C 138.22 255.28 137.63 258.67 137.15 262.06 C 135.19 269.49 131.77 276.44 129.78 283.86 C 128.80 287.53 127.78 291.20 126.81 294.89 C 125.50 301.60 123.82 308.27 123.17 315.10 C 122.50 318.37 122.40 321.71 122.13 325.03 C 121.27 328.97 121.48 333.03 121.31 337.04 C 121.20 345.67 121.03 354.31 121.51 362.94 C 121.62 370.67 123.32 378.31 122.74 386.06 C 123.29 388.33 123.48 390.69 124.19 392.92 C 130.42 425.49 142.51 457.16 161.33 484.58 C 181.53 514.20 209.41 538.50 241.28 554.87 C 265.56 565.80 291.36 574.39 318.11 576.05 C 339.43 578.05 361.16 577.06 382.07 572.29 C 383.22 572.92 383.29 573.50 382.27 574.01 C 379.41 574.65 376.50 575.03 373.66 575.77 C 377.51 575.40 381.42 575.12 385.16 574.10 C 390.80 572.94 396.51 572.02 402.01 570.24 C 395.56 570.64 388.94 574.90 382.63 572.19 C 399.68 568.92 416.15 563.02 431.97 555.95 C 467.61 539.98 498.95 514.68 522.34 483.43 C 541.07 458.44 554.25 429.39 561.14 398.95 C 563.60 388.73 564.48 378.23 566.20 367.87 C 566.88 364.44 566.50 360.59 568.54 357.57 C 570.18 366.06 568.41 374.67 567.69 383.16 C 566.43 394.25 563.85 405.15 561.17 415.98 C 566.37 401.81 568.81 386.81 570.60 371.88 C 572.77 353.65 572.22 335.15 569.71 316.98 C 569.21 314.56 568.03 312.34 567.49 309.93 C 564.57 296.12 561.47 282.33 557.27 268.85 C 552.58 254.24 545.17 240.67 537.23 227.60 C 526.28 210.08 512.95 194.10 497.95 179.91 C 480.81 164.13 461.45 150.79 440.84 139.97 M 544.68 224.72 C 544.60 225.97 545.51 228.04 546.86 228.13 C 547.05 226.85 546.11 224.70 544.68 224.72 M 549.54 233.02 C 549.41 231.42 548.77 230.00 547.62 228.78 C 546.44 229.16 548.33 232.75 549.54 233.02 M 551.12 228.26 C 549.49 232.88 553.93 236.32 556.10 239.86 C 557.40 245.74 560.56 250.94 562.65 256.54 C 563.92 259.28 564.44 262.37 566.20 264.88 C 566.97 267.43 567.69 270.01 568.91 272.41 C 569.99 269.37 569.76 264.36 566.03 263.46 C 562.97 251.06 558.63 238.72 551.12 228.26 M 576.85 378.39 C 577.58 377.39 577.60 376.40 576.90 375.43 C 575.27 375.14 575.25 378.68 576.85 378.39 M 74.30 396.04 C 74.79 401.49 75.35 406.98 76.74 412.29 C 76.38 406.82 74.88 401.49 74.30 396.04 M 77.25 413.41 C 76.53 414.49 76.28 417.23 77.75 417.63 C 78.47 416.53 78.68 413.85 77.25 413.41 M 560.08 417.27 C 558.60 420.27 563.42 417.34 560.08 417.27 M 78.23 419.30 C 77.65 420.91 78.21 423.99 79.78 424.66 C 80.28 423.03 79.92 419.89 78.23 419.30 M 85.98 445.37 C 84.26 438.83 82.35 432.32 80.19 425.91 C 81.25 432.61 83.44 439.09 85.98 445.37 M 86.02 446.28 C 85.70 447.44 86.53 449.95 87.99 449.84 C 88.55 448.66 87.41 446.21 86.02 446.28 M 88.11 451.32 C 86.55 454.32 91.42 451.51 88.11 451.32 M 537.29 467.30 C 537.79 467.80 537.79 467.80 537.29 467.30 M 541.34 468.15 C 540.08 468.72 538.89 470.30 539.25 471.71 C 540.75 472.27 543.01 468.83 541.34 468.15 M 522.30 489.41 C 501.92 515.53 475.84 536.91 446.92 552.93 C 477.98 537.13 505.37 514.07 526.02 485.97 C 529.50 480.82 532.66 475.46 535.98 470.20 C 531.59 476.72 527.16 483.22 522.30 489.41 M 520.87 499.96 C 527.27 495.71 531.67 489.33 535.95 483.10 C 530.11 487.86 524.34 493.16 520.87 499.96 M 120.24 504.30 C 120.75 504.82 120.75 504.82 120.24 504.30 M 123.22 509.11 C 122.91 510.51 123.44 511.05 124.81 510.74 C 125.11 509.32 124.58 508.78 123.22 509.11 M 135.16 529.40 C 135.70 529.88 135.70 529.88 135.16 529.40 M 445.33 553.29 C 445.80 553.82 445.80 553.82 445.33 553.29 M 442.34 554.05 C 440.75 554.27 441.11 556.79 442.76 555.98 C 444.34 555.75 443.99 553.21 442.34 554.05 M 403.55 569.29 C 403.33 570.76 405.88 570.58 406.49 569.68 C 406.70 568.20 404.14 568.37 403.55 569.29 Z" />
</g>
<g id="#51515151">
<path fill="#515151" opacity="0.32" d=" M 505.71 180.24 C 506.92 181.64 508.71 183.23 508.42 185.29 C 508.29 185.80 508.03 186.81 507.89 187.31 C 507.43 186.80 506.98 186.29 506.53 185.79 C 506.95 183.88 506.11 182.06 505.71 180.24 Z" />
</g>
<g id="#96939496">
<path fill="#969394" opacity="0.59" d=" M 99.97 244.75 C 100.80 242.94 101.70 241.16 102.68 239.43 C 102.51 240.43 102.18 242.45 102.01 243.45 C 102.81 243.14 104.40 242.50 105.20 242.18 C 104.30 244.35 101.92 244.35 99.97 244.75 Z" />
</g>
<g id="#abababab">
<path fill="#ababab" opacity="0.67" d=" M 65.38 328.98 C 65.83 323.58 64.79 317.87 66.60 312.69 C 66.31 323.30 67.60 334.04 65.33 344.51 C 65.17 350.66 66.82 356.72 66.87 362.89 C 66.89 363.79 66.94 365.60 66.96 366.50 C 66.59 366.05 65.86 365.15 65.49 364.70 C 63.72 360.76 65.03 356.21 64.27 352.03 C 62.59 344.32 66.00 336.73 65.38 328.98 Z" />
<path fill="#ababab" opacity="0.67" d=" M 574.71 372.32 C 574.96 362.09 575.63 351.86 576.23 341.65 C 577.14 345.58 577.02 349.63 577.46 353.62 C 576.44 359.84 576.17 366.17 574.71 372.32 Z" />
<path fill="#ababab" opacity="0.67" d=" M 541.34 468.15 C 543.01 468.83 540.75 472.27 539.25 471.71 C 538.89 470.30 540.08 468.72 541.34 468.15 Z" />
</g>
<g id="#9c9c9c9c">
<path fill="#9c9c9c" opacity="0.61" d=" M 66.87 362.89 C 66.94 372.89 70.41 382.39 71.10 392.32 C 70.20 390.29 69.45 388.20 68.72 386.11 C 68.25 383.36 67.57 380.67 66.82 378.00 C 65.68 373.65 65.15 369.18 65.49 364.70 C 65.86 365.15 66.59 366.05 66.96 366.50 C 66.94 365.60 66.89 363.79 66.87 362.89 Z" />
</g>
<g id="#cdcbcbcd">
<path fill="#cdcbcb" opacity="0.80" d=" M 77.25 413.41 C 78.68 413.85 78.47 416.53 77.75 417.63 C 76.28 417.23 76.53 414.49 77.25 413.41 Z" />
</g>
<g id="#dcdcdcdc">
<path fill="#dcdcdc" opacity="0.86" d=" M 560.08 417.27 C 563.42 417.34 558.60 420.27 560.08 417.27 Z" />
</g>
<g id="#c0bfbfc0">
<path fill="#c0bfbf" opacity="0.75" d=" M 78.23 419.30 C 79.92 419.89 80.28 423.03 79.78 424.66 C 78.21 423.99 77.65 420.91 78.23 419.30 Z" />
</g>
<g id="#a3a1a2a3">
<path fill="#a3a1a2" opacity="0.64" d=" M 88.11 451.32 C 91.42 451.51 86.55 454.32 88.11 451.32 Z" />
</g>
<g id="#ccc8cacc">
<path fill="#ccc8ca" opacity="0.80" d=" M 537.29 467.30 C 537.79 467.80 537.79 467.80 537.29 467.30 Z" />
</g>
<g id="#c7c3c5c7">
<path fill="#c7c3c5" opacity="0.78" d=" M 120.24 504.30 C 120.75 504.82 120.75 504.82 120.24 504.30 Z" />
</g>
<g id="#c6c3c5c6">
<path fill="#c6c3c5" opacity="0.78" d=" M 123.22 509.11 C 124.58 508.78 125.11 509.32 124.81 510.74 C 123.44 511.05 122.91 510.51 123.22 509.11 Z" />
</g>
<g id="#c3c3c3c3">
<path fill="#c3c3c3" opacity="0.76" d=" M 135.16 529.40 C 135.70 529.88 135.70 529.88 135.16 529.40 Z" />
</g>
<g id="#cecaccce">
<path fill="#cecacc" opacity="0.81" d=" M 445.33 553.29 C 445.80 553.82 445.80 553.82 445.33 553.29 Z" />
</g>
<g id="#dfdcdddf">
<path fill="#dfdcdd" opacity="0.87" d=" M 442.34 554.05 C 443.99 553.21 444.34 555.75 442.76 555.98 C 441.11 556.79 440.75 554.27 442.34 554.05 Z" />
</g>
<g id="#e7e4e5e7">
<path fill="#e7e4e5" opacity="0.91" d=" M 403.55 569.29 C 404.14 568.37 406.70 568.20 406.49 569.68 C 405.88 570.58 403.33 570.76 403.55 569.29 Z" />
</g>
</svg>
